REM DIRINDEX 1\3,1\4,1\5,1\6,1\2\7,1\2\8,1\2\9,1\10
REM DIRNAME folder01,folder02,folder03,folder04,folder05,folder06,folder07,folder08,folder09,folder10
TITLE ""
FILE "2-41 Level 5-êHÇ◊ï®.mp3" MP3
  TRACK 01 AUDIO
    TITLE "0:"
    INDEX 01 00:00:00
  TRACK 02 AUDIO
    TITLE "10:cjc056_2996"
    INDEX 01 00:00:01
  TRACK 03 AUDIO
    TITLE "0:"
    INDEX 01 00:03:14
  TRACK 04 AUDIO
    TITLE "5:cjc056_2997"
    INDEX 01 00:03:63
  TRACK 05 AUDIO
    TITLE "0:"
    INDEX 01 00:04:62
  TRACK 06 AUDIO
    TITLE "5:cjc056_2998"
    INDEX 01 00:06:00
  TRACK 07 AUDIO
    TITLE "0:"
    INDEX 01 00:06:71
  TRACK 08 AUDIO
    TITLE "5:cjc056_2999"
    INDEX 01 00:07:07
  TRACK 09 AUDIO
    TITLE "0:"
    INDEX 01 00:08:28
  TRACK 10 AUDIO
    TITLE "5:cjc056_3000"
    INDEX 01 00:09:02
  TRACK 11 AUDIO
    TITLE "0:"
    INDEX 01 00:10:02
  TRACK 12 AUDIO
    TITLE "5:cjc056_3001"
    INDEX 01 00:10:14
  TRACK 13 AUDIO
    TITLE "0:"
    INDEX 01 00:11:19
  TRACK 14 AUDIO
    TITLE "5:cjc056_3002"
    INDEX 01 00:11:66
  TRACK 15 AUDIO
    TITLE "0:"
    INDEX 01 00:13:00
  TRACK 16 AUDIO
    TITLE "5:cjc056_3003"
    INDEX 01 00:13:12
  TRACK 17 AUDIO
    TITLE "0:"
    INDEX 01 00:14:27
  TRACK 18 AUDIO
    TITLE "5:cjc056_3004"
    INDEX 01 00:14:74
  TRACK 19 AUDIO
    TITLE "0:"
    INDEX 01 00:16:06
  TRACK 20 AUDIO
    TITLE "5:cjc056_3005"
    INDEX 01 00:16:20
  TRACK 21 AUDIO
    TITLE "0:"
    INDEX 01 00:17:37
  TRACK 22 AUDIO
    TITLE "5:cjc056_3006"
    INDEX 01 00:18:11
  TRACK 23 AUDIO
    TITLE "0:"
    INDEX 01 00:19:20
  TRACK 24 AUDIO
    TITLE "5:cjc056_3007"
    INDEX 01 00:19:32
  TRACK 25 AUDIO
    TITLE "0:"
    INDEX 01 00:20:55
  TRACK 26 AUDIO
    TITLE "5:cjc056_3008"
    INDEX 01 00:21:29
  TRACK 27 AUDIO
    TITLE "0:"
    INDEX 01 00:22:27
  TRACK 28 AUDIO
    TITLE "5:cjc056_3009"
    INDEX 01 00:22:42
  TRACK 29 AUDIO
    TITLE "0:"
    INDEX 01 00:23:63
  TRACK 30 AUDIO
    TITLE "5:cjc056_3010"
    INDEX 01 00:24:35
  TRACK 31 AUDIO
    TITLE "0:"
    INDEX 01 00:25:35
  TRACK 32 AUDIO
    TITLE "5:cjc056_3011"
    INDEX 01 00:25:48
  TRACK 33 AUDIO
    TITLE "0:"
    INDEX 01 00:26:56
  TRACK 34 AUDIO
    TITLE "5:cjc056_3012"
    INDEX 01 00:27:30
  TRACK 35 AUDIO
    TITLE "0:"
    INDEX 01 00:28:35
  TRACK 36 AUDIO
    TITLE "5:cjc056_3013"
    INDEX 01 00:28:49
  TRACK 37 AUDIO
    TITLE "0:"
    INDEX 01 00:29:38
  TRACK 38 AUDIO
    TITLE "5:cjc056_3014"
    INDEX 01 00:30:12
  TRACK 39 AUDIO
    TITLE "0:"
    INDEX 01 00:31:20
  TRACK 40 AUDIO
    TITLE "5:cjc056_3015"
    INDEX 01 00:31:33
  TRACK 41 AUDIO
    TITLE "0:"
    INDEX 01 00:32:41
  TRACK 42 AUDIO
    TITLE "5:cjc056_3016"
    INDEX 01 00:33:15
  TRACK 43 AUDIO
    TITLE "0:"
    INDEX 01 00:34:12
  TRACK 44 AUDIO
    TITLE "5:cjc056_3017"
    INDEX 01 00:34:24
  TRACK 45 AUDIO
    TITLE "0:"
    INDEX 01 00:35:29
  TRACK 46 AUDIO
    TITLE "5:cjc056_3018"
    INDEX 01 00:36:01
  TRACK 47 AUDIO
    TITLE "0:"
    INDEX 01 00:36:74
  TRACK 48 AUDIO
    TITLE "5:cjc056_3019"
    INDEX 01 00:37:12
  TRACK 49 AUDIO
    TITLE "0:"
    INDEX 01 00:38:26
  TRACK 50 AUDIO
    TITLE "5:cjc056_3020"
    INDEX 01 00:39:00
  TRACK 51 AUDIO
    TITLE "0:"
    INDEX 01 00:40:11
  TRACK 52 AUDIO
    TITLE "5:cjc056_3021"
    INDEX 01 00:40:24
  TRACK 53 AUDIO
    TITLE "0:"
    INDEX 01 00:41:36
  TRACK 54 AUDIO
    TITLE "5:cjc056_3022"
    INDEX 01 00:42:10
  TRACK 55 AUDIO
    TITLE "0:"
    INDEX 01 00:43:25
  TRACK 56 AUDIO
    TITLE "5:cjc056_3023"
    INDEX 01 00:43:39
  TRACK 57 AUDIO
    TITLE "0:"
    INDEX 01 00:44:42
  TRACK 58 AUDIO
    TITLE "5:cjc056_3024"
    INDEX 01 00:45:14
  TRACK 59 AUDIO
    TITLE "0:"
    INDEX 01 00:46:17
  TRACK 60 AUDIO
    TITLE "5:cjc056_3025"
    INDEX 01 00:46:29
  TRACK 61 AUDIO
    TITLE "0:"
    INDEX 01 00:47:34
  TRACK 62 AUDIO
    TITLE "5:cjc056_3026"
    INDEX 01 00:48:06
  TRACK 63 AUDIO
    TITLE "0:"
    INDEX 01 00:49:08
  TRACK 64 AUDIO
    TITLE "5:cjc056_3027"
    INDEX 01 00:49:21
  TRACK 65 AUDIO
    TITLE "0:"
    INDEX 01 00:50:29
  TRACK 66 AUDIO
    TITLE "5:cjc056_3028"
    INDEX 01 00:51:03
  TRACK 67 AUDIO
    TITLE "0:"
    INDEX 01 00:52:10
  TRACK 68 AUDIO
    TITLE "5:cjc056_3029"
    INDEX 01 00:52:22
  TRACK 69 AUDIO
    TITLE "0:"
    INDEX 01 00:53:49
  TRACK 70 AUDIO
    TITLE "5:cjc056_3030"
    INDEX 01 00:54:23
  TRACK 71 AUDIO
    TITLE "0:"
    INDEX 01 00:55:16
  TRACK 72 AUDIO
    TITLE "5:cjc056_3031"
    INDEX 01 00:55:30
  TRACK 73 AUDIO
    TITLE "0:"
    INDEX 01 00:56:33
  TRACK 74 AUDIO
    TITLE "5:cjc056_3032"
    INDEX 01 00:57:07
  TRACK 75 AUDIO
    TITLE "0:"
    INDEX 01 00:58:22
  TRACK 76 AUDIO
    TITLE "5:cjc056_3033"
    INDEX 01 00:58:36
  TRACK 77 AUDIO
    TITLE "0:"
    INDEX 01 00:59:43
  TRACK 78 AUDIO
    TITLE "5:cjc056_3034"
    INDEX 01 01:00:17
  TRACK 79 AUDIO
    TITLE "0:"
    INDEX 01 01:01:40
  TRACK 80 AUDIO
    TITLE "5:cjc056_3035"
    INDEX 01 01:01:52
  TRACK 81 AUDIO
    TITLE "0:"
    INDEX 01 01:02:73
  TRACK 82 AUDIO
    TITLE "5:cjc056_3036"
    INDEX 01 01:03:47
  TRACK 83 AUDIO
    TITLE "0:"
    INDEX 01 01:04:52
  TRACK 84 AUDIO
    TITLE "5:cjc056_3037"
    INDEX 01 01:04:66
  TRACK 85 AUDIO
    TITLE "0:"
    INDEX 01 01:05:73
  TRACK 86 AUDIO
    TITLE "5:cjc056_3038"
    INDEX 01 01:06:47
  TRACK 87 AUDIO
    TITLE "0:"
    INDEX 01 01:07:59
  TRACK 88 AUDIO
    TITLE "5:cjc056_3039"
    INDEX 01 01:07:72
  TRACK 89 AUDIO
    TITLE "0:"
    INDEX 01 01:09:03
  TRACK 90 AUDIO
    TITLE "5:cjc056_3040"
    INDEX 01 01:09:50
  TRACK 91 AUDIO
    TITLE "0:"
    INDEX 01 01:10:47
  TRACK 92 AUDIO
    TITLE "5:cjc056_3041"
    INDEX 01 01:10:63
  TRACK 93 AUDIO
    TITLE "0:"
    INDEX 01 01:11:66
  TRACK 94 AUDIO
    TITLE "5:cjc056_3042"
    INDEX 01 01:12:40
  TRACK 95 AUDIO
    TITLE "0:"
    INDEX 01 01:13:44
  TRACK 96 AUDIO
    TITLE "5:cjc056_3043"
    INDEX 01 01:13:55
  TRACK 97 AUDIO
    TITLE "0:"
    INDEX 01 01:14:63
  TRACK 98 AUDIO
    TITLE "5:cjc056_3044"
    INDEX 01 01:15:39
  TRACK 99 AUDIO
    TITLE "0:"
    INDEX 01 01:16:52
  TRACK 100 AUDIO
    TITLE "5:cjc056_3045"
    INDEX 01 01:16:65
  TRACK 101 AUDIO
    TITLE "0:"
    INDEX 01 01:18:06
  TRACK 102 AUDIO
    TITLE "5:cjc056_3046"
    INDEX 01 01:18:53
  TRACK 103 AUDIO
    TITLE "0:"
    INDEX 01 01:19:60
  TRACK 104 AUDIO
    TITLE "5:cjc056_3047"
    INDEX 01 01:19:72
  TRACK 105 AUDIO
    TITLE "0:"
    INDEX 01 01:20:71
  TRACK 106 AUDIO
    TITLE "5:cjc056_3048"
    INDEX 01 01:21:47
  TRACK 107 AUDIO
    TITLE "0:"
    INDEX 01 01:22:50
  TRACK 108 AUDIO
    TITLE "5:cjc056_3049"
    INDEX 01 01:22:64
  TRACK 109 AUDIO
    TITLE "0:"
    INDEX 01 01:23:63
  TRACK 110 AUDIO
    TITLE "5:cjc056_3050"
    INDEX 01 01:24:37
  TRACK 111 AUDIO
    TITLE "0:"
    INDEX 01 01:25:29
  TRACK 112 AUDIO
    TITLE "5:cjc056_3051"
    INDEX 01 01:25:39
  TRACK 113 AUDIO
    TITLE "0:"
    INDEX 01 01:26:46
  TRACK 114 AUDIO
    TITLE "5:cjc056_3052"
    INDEX 01 01:27:16
  TRACK 115 AUDIO
    TITLE "0:"
    INDEX 01 01:28:33
  TRACK 116 AUDIO
    TITLE "5:cjc056_3053"
    INDEX 01 01:28:47
  TRACK 117 AUDIO
    TITLE "0:"
    INDEX 01 01:29:54
  TRACK 118 AUDIO
    TITLE "5:cjc056_3054"
    INDEX 01 01:30:26
  TRACK 119 AUDIO
    TITLE "0:"
    INDEX 01 01:31:34
  TRACK 120 AUDIO
    TITLE "5:cjc056_3055"
    INDEX 01 01:31:47
  TRACK 121 AUDIO
    TITLE "0:"
    INDEX 01 01:32:55
